# xmcd CD database file
# Copyright (C) 2004 Ti Kan
# 
# Track frame offsets:
#     182
#     12917
#     25330
#     38985
# 
# Disc length: 659 seconds
# 
# Revision: 1
# Processed by: cddbd v1.4PL0 Copyright (c) Steve Scherf et al.
# Submitted via: DiscPlay 4.0.4
# 
DISCID=28029104
DTITLE=Jimmy McCracklin - Jimmy McCracklin
DYEAR=1900
DGENRE=
TTITLE0=The Walk
TTITLE1=I'm to Blame
TTITLE2=He Knows the Rules
TTITLE3=Everybody Rock
EXTD=
EXTT0=
EXTT1=
EXTT2=
EXTT3=
PLAYORDER=
